<?xml version="1.0" encoding="UTF-8"?><svg id="Camada_2" xmlns="http://www.w3.org/2000/svg" viewBox="0 0 72.73 62"><defs><style>.cls-1{fill:#000;}</style></defs><g id="Camada_1-2"><path class="cls-1" d="M72.27,29.42h0c-4.86-6.62-9.96-11.85-15.2-15.58l9.56-9.56c.47-.47,.73-1.1,.73-1.77s-.26-1.3-.73-1.77c-.98-.98-2.57-.98-3.55,0l-10.36,10.36c-5.4-2.96-10.98-4.39-16.58-4.24-8.56,.2-17.37,4.07-25.48,11.19C4.28,23.65,.55,29.27,.4,29.51c-.55,.83-.52,1.92,.05,2.71,4.87,6.75,10.01,12.08,15.27,15.88l-9.62,9.62c-.47,.47-.73,1.1-.73,1.77s.26,1.3,.73,1.77c.47,.47,1.1,.73,1.77,.73s1.3-.26,1.77-.73l10.4-10.4c5.14,2.85,10.46,4.29,15.81,4.29h.71c20.8-.5,35.18-22.1,35.78-23.03,.53-.83,.49-1.91-.08-2.7Zm-29.7,7.79c-1.66,1.66-3.86,2.58-6.2,2.58-1.47,0-2.89-.37-4.17-1.07l3.47-3.47c.24,.05,.48,.07,.71,.07,2.36,0,4.28-1.92,4.28-4.28,0-.23-.02-.46-.07-.71l3.5-3.5c.7,1.28,1.06,2.71,1.06,4.17,0,2.34-.91,4.55-2.57,6.21Zm-12.4-12.42c1.66-1.66,3.86-2.58,6.2-2.58,1.46,0,2.89,.37,4.17,1.06l-3.52,3.52c-.22-.04-.43-.06-.64-.06-2.36,0-4.28,1.92-4.28,4.28,0,.21,.02,.42,.06,.64l-3.49,3.49c-.7-1.28-1.06-2.7-1.06-4.16,0-2.34,.91-4.55,2.57-6.21Zm19.01-10.16l-5.18,5.18c-2.25-1.53-4.93-2.37-7.63-2.37-3.62,0-7.02,1.41-9.58,3.96-2.55,2.57-3.96,5.97-3.96,9.58,0,2.7,.83,5.38,2.36,7.63l-6.04,6.04c-4.71-3.26-9.35-7.92-13.82-13.86,3.12-4.11,15.37-18.84,30.94-19.19,4.31-.09,8.67,.93,12.91,3.02Zm-20.44,27.54c2.25,1.54,4.93,2.37,7.63,2.37,3.62,0,7.02-1.41,9.56-3.97,2.56-2.55,3.97-5.95,3.97-9.57,0-2.71-.84-5.39-2.36-7.63l6.1-6.1c4.7,3.2,9.33,7.77,13.77,13.59-3.11,4.17-15.36,19.16-30.96,19.52h0c-4.29,.1-8.63-.92-12.87-3.05l5.16-5.16Z"/></g></svg>