<?xml version="1.0" encoding="UTF-8"?><svg id="Camada_2" xmlns="http://www.w3.org/2000/svg" viewBox="0 0 72.73 48.31"><defs><style>.cls-1{fill:#000;}</style></defs><g id="Camada_1-2"><g><path class="cls-1" d="M72.27,22.58h0C61.03,7.27,48.89-.32,36.14,.01,27.58,.21,18.77,4.08,10.66,11.2,4.28,16.8,.55,22.43,.4,22.66c-.55,.83-.52,1.92,.05,2.71,11,15.22,22.91,22.94,35.41,22.94h.71c20.8-.5,35.18-22.1,35.78-23.03,.53-.83,.49-1.91-.08-2.7ZM36.79,4.77c10.57,0,20.86,6.47,30.61,19.25-3.11,4.17-15.36,19.16-30.96,19.52h0c-10.71,.26-21.19-6.33-31.12-19.57,3.12-4.11,15.37-18.84,30.94-19.19,.18,0,.35,0,.53,0Z"/><path class="cls-1" d="M36.37,37.71c3.62,0,7.02-1.41,9.56-3.97,2.56-2.55,3.97-5.95,3.97-9.57s-1.41-7.03-3.96-9.58c-2.56-2.55-5.96-3.96-9.58-3.96s-7.02,1.41-9.58,3.96c-2.55,2.57-3.96,5.97-3.96,9.58s1.41,7.03,3.96,9.59c2.57,2.55,5.97,3.96,9.58,3.96Zm-8.78-13.55c0-2.34,.91-4.55,2.57-6.21,1.66-1.66,3.86-2.58,6.2-2.58s4.54,.91,6.2,2.58c1.66,1.66,2.57,3.87,2.57,6.21s-.91,4.55-2.57,6.21c-1.66,1.66-3.86,2.58-6.2,2.58s-4.54-.91-6.2-2.58c-1.66-1.66-2.57-3.87-2.57-6.21Z"/><circle class="cls-1" cx="36.37" cy="24.19" r="4.28"/></g></g></svg>